<svg width="140" height="100" viewBox="0 0 140 100" fill="none" xmlns="http://www.w3.org/2000/svg">
<path fill-rule="evenodd" clip-rule="evenodd" d="M50.177 57.432C50.177 59.7878 48.2593 61.6968 45.8941 61.6968C43.529 61.6968 41.6113 59.7878 41.6113 57.432C41.6113 57.432 41.6113 56.0076 41.6113 53.163C41.6113 50.8073 43.529 48.8982 45.8941 48.8982C48.2593 48.8982 50.177 50.8073 50.177 53.163C50.177 55.5188 50.177 55.0762 50.177 57.432ZM99.2477 57.4289C99.2477 59.7878 97.33 61.6968 94.9648 61.6968C92.5996 61.6968 90.682 59.7878 90.682 57.432V53.163C90.682 50.8073 92.5996 48.8982 94.9648 48.8982C97.33 48.8982 99.2477 50.8073 99.2477 53.163V57.4289ZM40.3571 85.0354C29.6162 79.7933 23.0003 67.9203 25.1786 56.0762C27.4898 42.5362 40.2885 32.8907 53.9501 33.0282C57.1293 33.0282 60.187 33.5081 63.0505 34.3985C65.4313 35.1358 67.6667 36.1545 69.738 37.4151C70.1699 37.6571 70.7794 37.6364 71.1937 37.3748C73.238 36.1348 75.4578 35.1286 77.8085 34.4006C80.6741 33.5081 83.7339 33.0282 86.9141 33.0282C100.568 32.8886 113.364 42.531 115.685 56.0607C117.891 68.0299 111.114 80.0208 100.193 85.1863C81.9958 94.353 58.5019 94.2899 40.3571 85.0354ZM122.194 38.3779C115.949 25.237 104.465 16.0093 89.8254 11.2357C86.3607 10.1157 83.0652 8.61727 79.9909 6.79097C76.954 4.98742 74.1309 2.86225 71.5695 0.463038C70.9995 -0.154346 69.8626 -0.154346 69.2926 0.463038C64.0898 5.33282 57.8633 9.02679 51.0336 11.2357C36.3919 16.0093 24.9097 25.236 18.6645 38.3779C16.1374 38.3644 13.6434 38.563 11.2201 38.9425C6.93727 39.594 3.4165 42.6479 2.14047 46.7296C0.508307 51.5405 0.528034 57.3131 2.18303 62.1187C3.62415 66.3349 7.38165 69.487 11.9396 70.0692C13.685 70.2854 15.4573 70.4002 17.2577 70.4177C24.4487 90.1978 46.9293 100.187 70.4295 99.9974C93.9411 100.18 116.394 90.203 123.6 70.4177C125.407 70.4002 127.183 70.2843 128.936 70.0672C133.393 69.4911 137.083 66.458 138.584 62.3773C140.333 57.5044 140.375 51.6294 138.719 46.7296C137.448 42.6572 133.919 39.5909 129.639 38.9425C127.216 38.563 124.721 38.3644 122.194 38.3779Z" fill="#32363F"/>
</svg>
